<?xml version="1.0" encoding="iso-8859-1"?>
<!-- Uploaded to: SVG Repo, www.svgrepo.com, Generator: SVG Repo Mixer Tools -->
<svg height="800px" width="800px" version="1.1" id="Layer_1" xmlns="http://www.w3.org/2000/svg" xmlns:xlink="http://www.w3.org/1999/xlink" 
	 viewBox="0 0 512 512" xml:space="preserve">
<g transform="translate(1 1)">
	<g>
		<polygon style="fill:#63D3FD;" points="186.733,101.4 323.267,101.4 323.267,33.133 186.733,33.133 		"/>
		<polygon style="fill:#63D3FD;" points="365.933,101.4 502.467,101.4 502.467,33.133 365.933,33.133 		"/>
	</g>
	<g>
		<polygon style="fill:#3DB9F9;" points="485.4,101.4 502.467,101.4 502.467,33.133 485.4,33.133 		"/>
		<polygon style="fill:#3DB9F9;" points="306.2,101.4 323.267,101.4 323.267,33.133 306.2,33.133 		"/>
	</g>
	<polygon style="fill:#63D3FD;" points="7.533,101.4 144.067,101.4 144.067,33.133 7.533,33.133 	"/>
	<g>
		<polygon style="fill:#FDCC00;" points="33.133,476.867 84.333,476.867 84.333,374.467 33.133,374.467 		"/>
		<polygon style="fill:#FDCC00;" points="425.667,476.867 476.867,476.867 476.867,374.467 425.667,374.467 		"/>
	</g>
	<polygon style="fill:#3DB9F9;" points="127,101.4 144.067,101.4 144.067,33.133 127,33.133 	"/>
	<polygon style="fill:#FFFFFF;" points="7.533,101.4 24.6,101.4 24.6,33.133 7.533,33.133 	"/>
	<g>
		<polygon style="fill:#FDCC00;" points="400.067,169.667 468.333,169.667 468.333,135.533 400.067,135.533 		"/>
		<polygon style="fill:#FDCC00;" points="220.867,169.667 289.133,169.667 289.133,135.533 220.867,135.533 		"/>
		<polygon style="fill:#FDCC00;" points="41.667,169.667 109.933,169.667 109.933,135.533 41.667,135.533 		"/>
	</g>
	<polygon style="fill:#FFE100;" points="7.533,374.467 502.467,374.467 502.467,169.667 7.533,169.667 	"/>
	<g>
		<polygon style="fill:#FFA800;" points="459.8,476.867 476.867,476.867 476.867,374.467 459.8,374.467 		"/>
		<polygon style="fill:#FFA800;" points="485.4,374.467 502.467,374.467 502.467,169.667 485.4,169.667 		"/>
	</g>
	<g>
		<polygon style="fill:#FFFFFF;" points="33.133,476.867 50.2,476.867 50.2,374.467 33.133,374.467 		"/>
		<polygon style="fill:#FFFFFF;" points="7.533,374.467 24.6,374.467 24.6,169.667 7.533,169.667 		"/>
	</g>
	<g>
		<polygon style="fill:#63D3FD;" points="50.2,280.6 152.6,280.6 152.6,212.333 50.2,212.333 		"/>
		<polygon style="fill:#63D3FD;" points="357.4,280.6 459.8,280.6 459.8,212.333 357.4,212.333 		"/>
	</g>
	<g>
		<polygon style="fill:#00DA6C;" points="195.267,255 229.4,255 229.4,212.333 195.267,212.333 		"/>
		<polygon style="fill:#00DA6C;" points="280.6,255 314.733,255 314.733,212.333 280.6,212.333 		"/>
		<polygon style="fill:#00DA6C;" points="195.267,331.8 229.4,331.8 229.4,289.133 195.267,289.133 		"/>
		<polygon style="fill:#00DA6C;" points="280.6,331.8 314.733,331.8 314.733,289.133 280.6,289.133 		"/>
	</g>
	<path d="M84.333,485.4h-51.2c-5.12,0-8.533-3.413-8.533-8.533v-102.4c0-5.12,3.413-8.533,8.533-8.533h51.2
		c5.12,0,8.533,3.413,8.533,8.533v102.4C92.867,481.987,89.453,485.4,84.333,485.4z M41.667,468.333H75.8V383H41.667V468.333z"/>
	<path d="M476.867,485.4h-51.2c-5.12,0-8.533-3.413-8.533-8.533v-102.4c0-5.12,3.413-8.533,8.533-8.533h51.2
		c5.12,0,8.533,3.413,8.533,8.533v102.4C485.4,481.987,481.987,485.4,476.867,485.4z M434.2,468.333h34.133V383H434.2V468.333z"/>
	<path d="M502.467,383H7.533C2.413,383-1,379.587-1,374.467v-204.8c0-5.12,3.413-8.533,8.533-8.533h494.933
		c5.12,0,8.533,3.413,8.533,8.533v204.8C511,379.587,507.587,383,502.467,383z M16.067,365.933h477.867V178.2H16.067V365.933z"/>
	<path d="M502.467,109.933H365.933c-5.12,0-8.533-3.413-8.533-8.533V33.133c0-5.12,3.413-8.533,8.533-8.533h136.533
		c5.12,0,8.533,3.413,8.533,8.533V101.4C511,106.52,507.587,109.933,502.467,109.933z M374.467,92.867h119.467v-51.2H374.467V92.867
		z"/>
	<path d="M434.2,144.067c-5.12,0-8.533-3.413-8.533-8.533V101.4c0-5.12,3.413-8.533,8.533-8.533c5.12,0,8.533,3.413,8.533,8.533
		v34.133C442.733,140.653,439.32,144.067,434.2,144.067z"/>
	<path d="M152.6,289.133H50.2c-5.12,0-8.533-3.413-8.533-8.533v-68.267c0-5.12,3.413-8.533,8.533-8.533h102.4
		c5.12,0,8.533,3.413,8.533,8.533V280.6C161.133,285.72,157.72,289.133,152.6,289.133z M58.733,272.067h85.333v-51.2H58.733V272.067
		z"/>
	<path d="M50.2,340.333c-5.12,0-8.533-3.413-8.533-8.533v-17.067c0-5.12,3.413-8.533,8.533-8.533s8.533,3.413,8.533,8.533V331.8
		C58.733,336.92,55.32,340.333,50.2,340.333z"/>
	<path d="M152.6,340.333c-5.12,0-8.533-3.413-8.533-8.533v-17.067c0-5.12,3.413-8.533,8.533-8.533c5.12,0,8.533,3.413,8.533,8.533
		V331.8C161.133,336.92,157.72,340.333,152.6,340.333z"/>
	<path d="M118.467,340.333c-5.12,0-8.533-3.413-8.533-8.533v-17.067c0-5.12,3.413-8.533,8.533-8.533s8.533,3.413,8.533,8.533V331.8
		C127,336.92,123.587,340.333,118.467,340.333z"/>
	<path d="M84.333,340.333c-5.12,0-8.533-3.413-8.533-8.533v-17.067c0-5.12,3.413-8.533,8.533-8.533s8.533,3.413,8.533,8.533V331.8
		C92.867,336.92,89.453,340.333,84.333,340.333z"/>
	<path d="M459.8,289.133H357.4c-5.12,0-8.533-3.413-8.533-8.533v-68.267c0-5.12,3.413-8.533,8.533-8.533h102.4
		c5.12,0,8.533,3.413,8.533,8.533V280.6C468.333,285.72,464.92,289.133,459.8,289.133z M365.933,272.067h85.333v-51.2h-85.333
		V272.067z"/>
	<path d="M357.4,340.333c-5.12,0-8.533-3.413-8.533-8.533v-17.067c0-5.12,3.413-8.533,8.533-8.533s8.533,3.413,8.533,8.533V331.8
		C365.933,336.92,362.52,340.333,357.4,340.333z"/>
	<path d="M459.8,340.333c-5.12,0-8.533-3.413-8.533-8.533v-17.067c0-5.12,3.413-8.533,8.533-8.533s8.533,3.413,8.533,8.533V331.8
		C468.333,336.92,464.92,340.333,459.8,340.333z"/>
	<path d="M425.667,340.333c-5.12,0-8.533-3.413-8.533-8.533v-17.067c0-5.12,3.413-8.533,8.533-8.533s8.533,3.413,8.533,8.533V331.8
		C434.2,336.92,430.787,340.333,425.667,340.333z"/>
	<path d="M391.533,340.333c-5.12,0-8.533-3.413-8.533-8.533v-17.067c0-5.12,3.413-8.533,8.533-8.533s8.533,3.413,8.533,8.533V331.8
		C400.067,336.92,396.653,340.333,391.533,340.333z"/>
	<path d="M229.4,263.533h-34.133c-5.12,0-8.533-3.413-8.533-8.533v-42.667c0-5.12,3.413-8.533,8.533-8.533H229.4
		c5.12,0,8.533,3.413,8.533,8.533V255C237.933,260.12,234.52,263.533,229.4,263.533z M203.8,246.467h17.067v-25.6H203.8V246.467z"/>
	<path d="M314.733,263.533H280.6c-5.12,0-8.533-3.413-8.533-8.533v-42.667c0-5.12,3.413-8.533,8.533-8.533h34.133
		c5.12,0,8.533,3.413,8.533,8.533V255C323.267,260.12,319.853,263.533,314.733,263.533z M289.133,246.467H306.2v-25.6h-17.067
		V246.467z"/>
	<path d="M229.4,340.333h-34.133c-5.12,0-8.533-3.413-8.533-8.533v-42.667c0-5.12,3.413-8.533,8.533-8.533H229.4
		c5.12,0,8.533,3.413,8.533,8.533V331.8C237.933,336.92,234.52,340.333,229.4,340.333z M203.8,323.267h17.067v-25.6H203.8V323.267z"
		/>
	<path d="M314.733,340.333H280.6c-5.12,0-8.533-3.413-8.533-8.533v-42.667c0-5.12,3.413-8.533,8.533-8.533h34.133
		c5.12,0,8.533,3.413,8.533,8.533V331.8C323.267,336.92,319.853,340.333,314.733,340.333z M289.133,323.267H306.2v-25.6h-17.067
		V323.267z"/>
	<path d="M468.333,178.2h-68.267c-5.12,0-8.533-3.413-8.533-8.533v-34.133c0-5.12,3.413-8.533,8.533-8.533h68.267
		c5.12,0,8.533,3.413,8.533,8.533v34.133C476.867,174.787,473.453,178.2,468.333,178.2z M408.6,161.133h51.2v-17.067h-51.2V161.133z
		"/>
	<path d="M323.267,109.933H186.733c-5.12,0-8.533-3.413-8.533-8.533V33.133c0-5.12,3.413-8.533,8.533-8.533h136.533
		c5.12,0,8.533,3.413,8.533,8.533V101.4C331.8,106.52,328.387,109.933,323.267,109.933z M195.267,92.867h119.467v-51.2H195.267
		V92.867z"/>
	<path d="M255,144.067c-5.12,0-8.533-3.413-8.533-8.533V101.4c0-5.12,3.413-8.533,8.533-8.533s8.533,3.413,8.533,8.533v34.133
		C263.533,140.653,260.12,144.067,255,144.067z"/>
	<path d="M289.133,178.2h-68.267c-5.12,0-8.533-3.413-8.533-8.533v-34.133c0-5.12,3.413-8.533,8.533-8.533h68.267
		c5.12,0,8.533,3.413,8.533,8.533v34.133C297.667,174.787,294.253,178.2,289.133,178.2z M229.4,161.133h51.2v-17.067h-51.2V161.133z
		"/>
	<path d="M144.067,109.933H7.533C2.413,109.933-1,106.52-1,101.4V33.133c0-5.12,3.413-8.533,8.533-8.533h136.533
		c5.12,0,8.533,3.413,8.533,8.533V101.4C152.6,106.52,149.187,109.933,144.067,109.933z M16.067,92.867h119.467v-51.2H16.067V92.867
		z"/>
	<path d="M75.8,144.067c-5.12,0-8.533-3.413-8.533-8.533V101.4c0-5.12,3.413-8.533,8.533-8.533c5.12,0,8.533,3.413,8.533,8.533
		v34.133C84.333,140.653,80.92,144.067,75.8,144.067z"/>
	<path d="M109.933,178.2H41.667c-5.12,0-8.533-3.413-8.533-8.533v-34.133c0-5.12,3.413-8.533,8.533-8.533h68.267
		c5.12,0,8.533,3.413,8.533,8.533v34.133C118.467,174.787,115.053,178.2,109.933,178.2z M50.2,161.133h51.2v-17.067H50.2V161.133z"
		/>
</g>
</svg>