<?xml version="1.0" encoding="iso-8859-1"?>
<!-- Uploaded to: SVG Repo, www.svgrepo.com, Generator: SVG Repo Mixer Tools -->
<svg version="1.1" id="Layer_1" xmlns="http://www.w3.org/2000/svg" xmlns:xlink="http://www.w3.org/1999/xlink" 
	 viewBox="0 0 512 512" xml:space="preserve">
<path style="fill:#F26D76;" d="M494.952,278.261h-267.13c-9.239,0-16.696,7.457-16.696,16.696v166.957
	c0,27.603,22.483,50.087,50.087,50.087H461.56c27.603,0,50.087-22.483,50.087-50.087V294.957
	C511.647,285.718,504.191,278.261,494.952,278.261z"/>
<path style="fill:#E65C64;" d="M494.952,278.261H361.386V512H461.56c27.603,0,50.087-22.483,50.087-50.087V294.957
	C511.647,285.718,504.191,278.261,494.952,278.261z"/>
<path style="fill:#FFC033;" d="M147.197,268.043c-1.864-13.25-8.772-24.978-19.456-33.027c-10.685-8.054-23.864-11.468-37.114-9.603
	s-24.984,8.772-33.033,19.457c-7.522,9.977-10.799,22.146-9.709,34.495c-12.176,2.359-22.964,8.863-30.481,18.84
	C9.35,308.885,5.941,322.069,7.8,335.314c1.864,13.25,8.772,24.983,19.456,33.033c8.777,6.614,19.239,10.098,30.043,10.098
	c2.347,0,4.707-0.163,7.071-0.494c13.25-1.864,24.983-8.772,33.038-19.456l20.093-26.668c0.008-0.011,0.013-0.026,0.022-0.037
	l20.07-26.632C145.647,294.472,149.054,281.294,147.197,268.043z M84.256,264.968c3.277-4.353,8.288-6.642,13.353-6.642
	c3.501,0,7.032,1.092,10.033,3.354c3.565,2.685,5.865,6.598,6.483,11.011c0.626,4.413-0.516,8.81-3.196,12.369l-10.049,13.336
	L87.55,288.348c-3.565-2.685-5.869-6.598-6.489-11.011C80.441,272.918,81.576,268.527,84.256,264.968z M70.74,338.396
	c-5.543,7.364-16.055,8.81-23.386,3.288c-3.565-2.685-5.865-6.598-6.483-11.011c-0.626-4.419,0.511-8.81,3.196-12.369
	c3.282-4.353,8.293-6.647,13.359-6.647c3.501,0,7.027,1.092,10.027,3.354l13.332,10.049L70.74,338.396z"/>
<g>
	<path style="fill:#F9A926;" d="M47.883,279.364v0.002c-12.176,2.359-22.964,8.863-30.481,18.84
		c-8.054,10.68-11.462,23.864-9.603,37.109c1.864,13.25,8.772,24.983,19.456,33.033c8.777,6.614,19.239,10.098,30.043,10.098
		c2.347,0,4.707-0.162,7.071-0.494c13.25-1.864,24.983-8.772,33.038-19.456l20.093-26.669c0-0.001,0-0.001,0-0.001L47.883,279.364z
		 M70.74,338.396c-5.543,7.364-16.055,8.81-23.386,3.288c-3.565-2.685-5.865-6.598-6.483-11.011
		c-0.626-4.419,0.511-8.81,3.196-12.369c3.282-4.353,8.293-6.647,13.359-6.647c3.501,0,7.027,1.092,10.027,3.354l13.332,10.049
		L70.74,338.396z"/>
	<path style="fill:#F9A926;" d="M411.713,209.484c-0.875,0-1.766-0.066-2.658-0.211c-9.104-1.451-15.304-10.016-13.847-19.12
		c6.278-39.283,29.457-73.603,63.593-94.163c7.907-4.745,18.163-2.196,22.913,5.69c4.76,7.903,2.217,18.157-5.684,22.919
		c-25.685,15.467-43.125,41.283-47.853,70.826C426.864,203.636,419.772,209.484,411.713,209.484z"/>
</g>
<g>
	<path style="fill:#FFC033;" d="M310.941,209.418c-8.054,0-15.146-5.842-16.462-14.049c-4.745-29.527-22.18-55.32-47.842-70.772
		c-7.897-4.755-10.446-15.016-5.69-22.919c4.76-7.886,15.016-10.435,22.919-5.69c34.104,20.538,57.277,54.832,63.581,94.087
		c1.461,9.104-4.734,17.668-13.837,19.131C312.713,209.353,311.821,209.418,310.941,209.418z"/>
	<path style="fill:#FFC033;" d="M361.386,144.696c-9.223,0-16.696-7.473-16.696-16.696V16.696C344.691,7.473,352.164,0,361.386,0
		c9.223,0,16.696,7.473,16.696,16.696V128C378.082,137.223,370.609,144.696,361.386,144.696z"/>
</g>
<circle style="fill:#36D9D9;" cx="245.237" cy="44.522" r="16.696"/>
<circle style="fill:#43BFBF;" cx="445.585" cy="44.522" r="16.696"/>
<path style="fill:#36D9D9;" d="M57.022,512c-3.603,0-7.136-1.169-10.049-3.364l-26.669-20.098
	C9.62,480.49,2.713,468.76,0.849,455.511c-1.859-13.25,1.549-26.429,9.603-37.114l160.766-213.337
	c8.048-10.685,19.778-17.593,33.027-19.456c13.229-1.875,26.424,1.544,37.114,9.598l26.669,20.098
	c7.364,5.549,8.832,16.017,3.282,23.381L70.353,505.353c-2.664,3.533-6.625,5.869-11.011,6.483
	C58.571,511.945,57.794,512,57.022,512z"/>
<path style="fill:#43BFBF;" d="M90.834,311.729L10.452,418.396c-8.054,10.685-11.462,23.864-9.603,37.114
	c1.864,13.25,8.772,24.978,19.456,33.027l26.669,20.098c2.914,2.195,6.447,3.364,10.05,3.364c0.771,0,1.549-0.055,2.321-0.163
	c4.385-0.614,8.348-2.951,11.011-6.483l100.481-133.339L90.834,311.729z"/>
<rect x="344.687" y="278.261" style="fill:#FFC033;" width="33.391" height="233.739"/>
<g>
	<rect x="361.383" y="278.261" style="fill:#F9A926;" width="16.696" height="233.739"/>
	<path style="fill:#F9A926;" d="M378.082,128V16.696C378.082,7.473,370.609,0,361.386,0v144.696
		C370.609,144.696,378.082,137.223,378.082,128z"/>
</g>
</svg>