<?xml version="1.0" encoding="utf-8"?>
<!-- Uploaded to: SVG Repo, www.svgrepo.com, Generator: SVG Repo Mixer Tools -->
<svg width="800px" height="800px" viewBox="0 0 1024 1024" class="icon"  version="1.1" xmlns="http://www.w3.org/2000/svg"><path d="M720.7936 453.9392l-2.8416-190.3616a48.8448 48.8448 0 0 0-48.6144-48.9728h-152.9088c-34.0224 0-65.4848 14.848-87.296 40.9344a112.7168 112.7168 0 0 0-87.3472-40.96H188.2368a48.8448 48.8448 0 0 0-48.5888 48.9984v407.3728c0 27.008 21.7856 48.9728 48.5888 48.9728h158.464a117.4016 117.4016 0 0 0 111.6672 29.184c3.7632-1.024 15.7184-53.4528 11.52-50.2784a69.2736 69.2736 0 0 1-20.6592 10.8032V319.8464c0-37.2992 38.0928-65.152 72.1408-65.152h140.416c8.704 0 16.0256 7.424 16.0256 16.1792l2.7136 171.3152 40.2688 11.7504z m-366.4128 223.872H195.7888a16.3328 16.3328 0 0 1-16.0256-16.1792V270.5664c0-8.7808 7.3472-16.2048 16.0256-16.2048h140.416c34.048 0 72.1408 27.8784 72.1408 65.1776v390.2464a71.6032 71.6032 0 0 1-32.768-21.8624c-5.12-6.3232-13.056-10.112-21.1968-10.112z" fill="#ED892D" /><path d="M329.088 473.856H249.3184a19.9424 19.9424 0 0 1 0-39.9104h79.7696a19.9424 19.9424 0 1 1 0 39.8848z m0-99.7376H249.3184a19.9424 19.9424 0 0 1 0-39.8592h79.7696a19.9424 19.9424 0 1 1 0 39.8592z m-79.7696 159.5392h79.7696a19.9424 19.9424 0 1 1 0 39.8848H249.3184a19.9424 19.9424 0 1 1 0-39.8848zM608.256 374.1184h-99.6864a19.9424 19.9424 0 0 1 0-39.8592h99.6864a19.9424 19.9424 0 1 1 0 39.8592z" fill="#F5C280" /><path d="M729.6 486.4l89.6 153.6-89.6 153.6h-179.2L460.8 640l89.6-153.6h179.2z m-18.7904 32.3328h-141.6192L498.432 640l70.7328 121.2672h141.6192L781.568 640l-70.7328-121.2672z m-87.0912 169.7792h32.5632v32.3328h-32.5632v-32.3328z m0-129.3568h32.5632v97.024h-32.5632v-97.024z" fill="#BA42D6" /></svg>