<svg width="400" height="300" viewBox="0 0 400 300" xmlns="http://www.w3.org/2000/svg">
  <defs>
    <radialGradient id="excellenceGradient" cx="50%" cy="50%" r="50%">
      <stop offset="0%" style="stop-color:#60a5fa;stop-opacity:0.3" />
      <stop offset="70%" style="stop-color:#f7e37a;stop-opacity:0.2" />
      <stop offset="100%" style="stop-color:#1e293b;stop-opacity:0.8" />
    </radialGradient>
    <pattern id="targetPattern" x="0" y="0" width="100" height="100" patternUnits="userSpaceOnUse">
      <circle cx="50" cy="50" r="2" fill="#60a5fa" opacity="0.3"/>
      <circle cx="50" cy="50" r="15" fill="none" stroke="#f7e37a" stroke-width="1" opacity="0.4"/>
      <circle cx="50" cy="50" r="25" fill="none" stroke="#60a5fa" stroke-width="1" opacity="0.3"/>
      <circle cx="50" cy="50" r="35" fill="none" stroke="#f7e37a" stroke-width="1" opacity="0.2"/>
    </pattern>
  </defs>
  
  <!-- Background -->
  <rect width="400" height="300" fill="url(#excellenceGradient)"/>
  
  <!-- Target pattern overlay -->
  <rect width="400" height="300" fill="url(#targetPattern)"/>
  
  <!-- Central target -->
  <circle cx="200" cy="150" r="60" fill="none" stroke="#60a5fa" stroke-width="2" opacity="0.6"/>
  <circle cx="200" cy="150" r="40" fill="none" stroke="#f7e37a" stroke-width="2" opacity="0.6"/>
  <circle cx="200" cy="150" r="20" fill="none" stroke="#60a5fa" stroke-width="2" opacity="0.6"/>
  <circle cx="200" cy="150" r="8" fill="#f7e37a" opacity="0.8"/>
  
  <!-- Floating precision elements -->
  <circle cx="80" cy="80" r="3" fill="#60a5fa" opacity="0.6"/>
  <circle cx="320" cy="120" r="2" fill="#f7e37a" opacity="0.6"/>
  <circle cx="120" cy="220" r="2" fill="#60a5fa" opacity="0.6"/>
  <circle cx="280" cy="200" r="3" fill="#f7e37a" opacity="0.6"/>
  
  <!-- Quality assurance lines -->
  <line x1="50" y1="50" x2="80" y2="80" stroke="#60a5fa" stroke-width="1" opacity="0.4"/>
  <line x1="350" y1="100" x2="320" y2="130" stroke="#f7e37a" stroke-width="1" opacity="0.4"/>
  <line x1="100" y1="250" x2="130" y2="220" stroke="#60a5fa" stroke-width="1" opacity="0.4"/>
</svg> 