<svg width="400" height="300" viewBox="0 0 400 300" xmlns="http://www.w3.org/2000/svg">
  <defs>
    <linearGradient id="integrityGradient" x1="0%" y1="0%" x2="100%" y2="100%">
      <stop offset="0%" style="stop-color:#f7e37a;stop-opacity:0.3" />
      <stop offset="50%" style="stop-color:#60a5fa;stop-opacity:0.2" />
      <stop offset="100%" style="stop-color:#1e293b;stop-opacity:0.8" />
    </linearGradient>
    <pattern id="trustPattern" x="0" y="0" width="80" height="80" patternUnits="userSpaceOnUse">
      <rect x="0" y="0" width="80" height="80" fill="none" stroke="#f7e37a" stroke-width="1" opacity="0.2"/>
      <circle cx="40" cy="40" r="15" fill="none" stroke="#60a5fa" stroke-width="1" opacity="0.3"/>
    </pattern>
  </defs>
  
  <!-- Background -->
  <rect width="400" height="300" fill="url(#integrityGradient)"/>
  
  <!-- Trust pattern overlay -->
  <rect width="400" height="300" fill="url(#trustPattern)"/>
  
  <!-- Central handshake symbol -->
  <g transform="translate(200, 150)">
    <!-- Left hand -->
    <path d="M-30,-20 Q-40,-30 -30,-40 Q-20,-50 -10,-40 Q0,-30 -10,-20 Q-20,-10 -30,-20" 
          fill="none" stroke="#f7e37a" stroke-width="3" opacity="0.8"/>
    <!-- Right hand -->
    <path d="M30,-20 Q40,-30 30,-40 Q20,-50 10,-40 Q0,-30 10,-20 Q20,-10 30,-20" 
          fill="none" stroke="#60a5fa" stroke-width="3" opacity="0.8"/>
    <!-- Connection point -->
    <circle cx="0" cy="-30" r="5" fill="#f7e37a" opacity="0.9"/>
  </g>
  
  <!-- Trust building elements -->
  <rect x="50" y="50" width="60" height="40" rx="5" fill="none" stroke="#f7e37a" stroke-width="2" opacity="0.6"/>
  <rect x="290" y="80" width="60" height="40" rx="5" fill="none" stroke="#60a5fa" stroke-width="2" opacity="0.6"/>
  <rect x="170" y="200" width="60" height="40" rx="5" fill="none" stroke="#f7e37a" stroke-width="2" opacity="0.6"/>
  
  <!-- Transparency lines -->
  <line x1="80" y1="70" x2="120" y2="70" stroke="#f7e37a" stroke-width="1" opacity="0.5"/>
  <line x1="320" y1="100" x2="360" y2="100" stroke="#60a5fa" stroke-width="1" opacity="0.5"/>
  <line x1="200" y1="220" x2="240" y2="220" stroke="#f7e37a" stroke-width="1" opacity="0.5"/>
  
  <!-- Ethical foundation elements -->
  <circle cx="100" cy="120" r="8" fill="#f7e37a" opacity="0.6"/>
  <circle cx="300" cy="150" r="6" fill="#60a5fa" opacity="0.6"/>
  <circle cx="200" cy="250" r="8" fill="#f7e37a" opacity="0.6"/>
</svg> 